<svg xmlns="http://www.w3.org/2000/svg" viewBox="0 0 100 100" width="100%" height="100%">
  <rect x="2" y="2" width="96" height="96" rx="24" fill="none" stroke="#ffffff" stroke-width="3" opacity="0.3"/>
  <rect x="25" y="15" width="40" height="6" rx="3" fill="none" stroke="#c25e2a" stroke-width="2.5"/>
  <rect x="25" y="79" width="40" height="6" rx="3" fill="none" stroke="#c25e2a" stroke-width="2.5"/>
  <path d="M 30 21 C 30 40, 42 47, 45 50 C 42 53, 30 60, 30 79 L 60 79 C 60 60, 48 53, 45 50 C 48 47, 60 40, 60 21 Z" fill="none" stroke="#e65100" stroke-width="3" stroke-linejoin="round"/>
  <line x1="45" y1="50" x2="45" y2="70" stroke="#ffffff" stroke-width="2" opacity="0.5"/>
  <path d="M 75 48 L 95 82 L 55 82 Z" fill="none" stroke="#ffffff" stroke-width="3" stroke-linejoin="round"/>
  <path d="M 75 60 L 75 70" fill="none" stroke="#ffffff" stroke-width="3" stroke-linecap="round"/>
  <circle cx="75" cy="75" r="2" fill="#ffffff"/>
</svg>
