<svg xmlns="http://www.w3.org/2000/svg" viewBox="0 0 100 100" width="100%" height="100%">
  <rect x="2" y="2" width="96" height="96" rx="24" fill="none" stroke="#ffffff" stroke-width="3" opacity="0.3"/>
  <circle cx="50" cy="50" r="28" fill="none" stroke="#f37825" stroke-width="3"/>
  <g stroke="#ffffff" stroke-width="2" opacity="0.5">
    <line x1="50" y1="14" x2="50" y2="30" transform="rotate(0 50 50)" />
    <line x1="50" y1="14" x2="50" y2="30" transform="rotate(45 50 50)" />
    <line x1="50" y1="14" x2="50" y2="30" transform="rotate(90 50 50)" />
    <line x1="50" y1="14" x2="50" y2="30" transform="rotate(135 50 50)" />
    <line x1="50" y1="14" x2="50" y2="30" transform="rotate(180 50 50)" />
    <line x1="50" y1="14" x2="50" y2="30" transform="rotate(225 50 50)" />
    <line x1="50" y1="14" x2="50" y2="30" transform="rotate(270 50 50)" />
    <line x1="50" y1="14" x2="50" y2="30" transform="rotate(315 50 50)" />
  </g>
  <path d="M 50 35 L 38 38 L 38 48 C 38 56, 46 63, 50 66 C 54 63, 62 56, 62 48 L 62 38 Z" fill="none" stroke="#f37825" stroke-width="3" stroke-linejoin="round"/>
  <path d="M 44 51 L 48 55 L 56 46" fill="none" stroke="#f37825" stroke-width="3" stroke-linecap="round" stroke-linejoin="round"/>
</svg>
